<?xml version="1.0" encoding="UTF-8" standalone="no"?>
<!-- Generator: Adobe Illustrator 16.0.4, SVG Export Plug-In . SVG Version: 6.00 Build 0)  -->

<svg
   xmlns:dc="http://purl.org/dc/elements/1.1/"
   xmlns:cc="http://creativecommons.org/ns#"
   xmlns:rdf="http://www.w3.org/1999/02/22-rdf-syntax-ns#"
   xmlns:svg="http://www.w3.org/2000/svg"
   xmlns="http://www.w3.org/2000/svg"
   xmlns:sodipodi="http://sodipodi.sourceforge.net/DTD/sodipodi-0.dtd"
   xmlns:inkscape="http://www.inkscape.org/namespaces/inkscape"
   version="1.1"
   id="Capa_1"
   x="0px"
   y="0px"
   width="100px"
   height="100px"
   viewBox="0 0 100 100"
   enable-background="new 0 0 100 100"
   xml:space="preserve"
   inkscape:version="0.48.4 r9939"
   sodipodi:docname="compact10.svg"><metadata
   id="metadata3031"><rdf:RDF><cc:Work
       rdf:about=""><dc:format>image/svg+xml</dc:format><dc:type
         rdf:resource="http://purl.org/dc/dcmitype/StillImage" /></cc:Work></rdf:RDF></metadata><defs
   id="defs3029"><filter
     id="filter3033"
     inkscape:label="Invert"
     x="0"
     y="0"
     width="1"
     height="1"
     inkscape:menu="Color"
     inkscape:menu-tooltip="Invert colors"
     color-interpolation-filters="sRGB"><feColorMatrix
       id="feColorMatrix3035"
       type="saturate"
       values="1"
       result="fbSourceGraphic" /><feColorMatrix
       id="feColorMatrix3037"
       in="fbSourceGraphic"
       values="-1 0 0 0 1 0 -1 0 0 1 0 0 -1 0 1 0 0 0 1 0 " /></filter></defs><sodipodi:namedview
   pagecolor="#ffffff"
   bordercolor="#666666"
   borderopacity="1"
   objecttolerance="10"
   gridtolerance="10"
   guidetolerance="10"
   inkscape:pageopacity="0"
   inkscape:pageshadow="2"
   inkscape:window-width="1271"
   inkscape:window-height="712"
   id="namedview3027"
   showgrid="false"
   inkscape:zoom="2.36"
   inkscape:cx="50"
   inkscape:cy="50"
   inkscape:window-x="0"
   inkscape:window-y="0"
   inkscape:window-maximized="0"
   inkscape:current-layer="Capa_1" />
<g
   id="Layer_7"
   style="filter:url(#filter3033)">
	<path
   d="M50,8.288C26.963,8.288,8.288,26.963,8.288,50S26.963,91.712,50,91.712S91.712,73.037,91.712,50S73.037,8.288,50,8.288z    M19.882,52.919h-1.73c0-9.434,3.447-18.073,9.139-24.742c0.408,0.409,0.817,0.816,1.226,1.226   C23.136,35.755,19.882,43.962,19.882,52.919z M25.938,52.919h-1.73c0-7.765,2.77-14.893,7.373-20.451l1.229,1.229   C28.518,38.938,25.938,45.631,25.938,52.919z M50,66.543c-9.136,0-16.543-7.406-16.543-16.543c0-9.137,7.407-16.543,16.543-16.543   c9.137,0,16.543,7.406,16.543,16.543C66.543,59.137,59.137,66.543,50,66.543z M67.809,67.822c4.293-5.24,6.873-11.936,6.873-19.222   h1.73c0,7.765-2.77,14.893-7.373,20.452L67.809,67.822z M73.329,73.343c-0.409-0.409-0.817-0.817-1.226-1.226   c5.379-6.354,8.633-14.561,8.633-23.517h1.73C82.468,58.035,79.021,66.674,73.329,73.343z M55.585,50   c0,3.084-2.5,5.585-5.585,5.585S44.415,53.084,44.415,50c0-3.085,2.5-5.585,5.585-5.585S55.585,46.915,55.585,50z"
   id="path3025" />
</g>
</svg>